{"title":"A Woman Like Eve / Een Vrouw als Eva (1979) Lesbian Drama","uid":13504072,"size":1482340409,"categoryP":"video","categoryS":"movies","magnet":"?xt=urn:btih:12bb00a15e54b07e825a1cc43a936d7fd19fb11b&amp;dn=A+Woman+Like+Eve+%2F+Een+Vrouw+als+Eva+%281979%29+Lesbian+Drama+&amp;tr=udp%3A%2F%2Ftracker.leechers-paradise.org%3A6969&amp;tr=udp%3A%2F%2Fzer0day.ch%3A1337&amp;tr=udp%3A%2F%2Fopen.demonii.com%3A1337&amp;tr=udp%3A%2F%2Ftracker.coppersurfer.tk%3A6969&amp;tr=udp%3A%2F%2Fexodus.desync.com%3A6969","seeders":1,"leechers":0,"uploader":"brablay","files":4,"time":1455231662,"description":"Movie Info:\r\nAn off-beat twist for its time on the classic story of a custody battle, Een Vrouw Als Eva stars Monique van de Ven as a housewife who jumps ship on her husband and children to pair up with Liliane (Maria Schneider). Eve meets Liliane while on vacation in the south of France and at first, she is simply entertained and attracted by Liliane's free-wheeling, back-to-nature existence but soon discovers that there is a sexual component to her attraction. Once the decision is made to divorce her husband, Eve spends some time with Liliane before going back home to fight over custody of her two children. From that moment on, the drama evolves around the complex emotions that plague two basically decent people as they argue over the children they both love.\r\n\r\nAlso known as: Una mujer como Eva, Mia gynaika opos i Eva, Una donna come Eva, Подобно Еве.\r\n\r\nInfo:\r\n\r\n[mediainfo]\r\nVideo\r\nID : 0\r\nFormat : MPEG-4 Visual\r\nFormat profile : Advanced   \r\nFormat settings, BVOP : 2\r\nFormat settings, QPel : No\r\nFormat settings, GMC : No warppoints\r\nFormat settings, Matrix : Default (H.263)\r\nMuxing mode : Packed bitstream\r\nCodec ID : XVID\r\nCodec ID/Hint : XviD\r\nDuration : 1h 37mn\r\nBit rate : 1 795 Kbps\r\nWidth : 720 pixels\r\nHeight : 464 pixels\r\nDisplay aspect ratio : 16:10\r\nFrame rate : 25.000 fps\r\nColor space : YUV\r\nChroma subsampling : 4:2:0\r\nBit depth : 8 bits\r\nScan type : Progressive\r\nCompression mode : Lossy\r\nBits/(Pixel*Frame) : 0.215\r\nStream size : 1.23 GiB (90%)\r\nWriting library : XviD 1.2.1 (UTC 2008-12-04)\r\n\r\nAudio\r\nID : 1\r\nFormat : AC-3\r\nFormat/Info : Audio Coding 3\r\nMode extension : CM (complete main)\r\nFormat settings, Endianness : Big\r\nCodec ID : 2000\r\nDuration : 1h 37mn\r\nBit rate mode : Constant\r\nBit rate : 192 Kbps\r\nChannel(s) : 2 channels\r\nChannel positions : Front: L R\r\nSampling rate : 48.0 KHz\r\nFrame rate : 31.250 fps (1536 spf)\r\nCompression mode : Lossy\r\nStream size : 134 MiB (10%)\r\nAlignment : Split accross interleaves\r\nInterleave, duration : 40 ms (1.00 video frame)\r\nInterleave, preload duratio : 500 ms\r\n[/mediainfo]","torrent":{"xt":"urn:btih:12bb00a15e54b07e825a1cc43a936d7fd19fb11b","amp;dn":"A+Woman+Like+Eve+%2F+Een+Vrouw+als+Eva+%281979%29+Lesbian+Drama+","amp;tr":["udp%3A%2F%2Ftracker.leechers-paradise.org%3A6969","udp%3A%2F%2Fzer0day.ch%3A1337","udp%3A%2F%2Fopen.demonii.com%3A1337","udp%3A%2F%2Ftracker.coppersurfer.tk%3A6969","udp%3A%2F%2Fexodus.desync.com%3A6969"],"infoHash":"12bb00a15e54b07e825a1cc43a936d7fd19fb11b","infoHashBuffer":{"type":"Buffer","data":[18,187,0,161,94,84,176,126,130,90,28,196,58,147,109,127,209,159,177,27]},"announce":[],"urlList":[]}}